<?xml version="1.0" standalone="no"?>
<!DOCTYPE svg PUBLIC "-//W3C//DTD SVG 20010904//EN"
 "http://www.w3.org/TR/2001/REC-SVG-20010904/DTD/svg10.dtd">
<svg version="1.0" 
  xmlns="http://www.w3.org/2000/svg" width="400.000000pt" height="400.000000pt" viewBox="0 0 400.000000 400.000000" preserveAspectRatio="xMidYMid meet">

  <g transform="translate(0.000000,400.000000) scale(0.100000,-0.100000)" fill="#000000" stroke="none">
    <path d="M147 2324 c-4 -4 -7 -29 -7 -56 l0 -48 239 0 c254 0 277 -3 324 -48
39 -37 37 -82 -7 -130 l-34 -37 -239 -5 c-319 -7 -313 -3 -313 -211 l0 -119
55 0 55 0 0 100 c0 88 2 100 19 110 12 6 101 10 219 10 198 0 200 0 252 28 69
35 107 84 121 152 21 98 -22 178 -124 233 -40 21 -55 22 -297 25 -141 2 -259
0 -263 -4z"/>
    <path d="M1393 2311 c-73 -25 -118 -58 -158 -116 -43 -63 -59 -127 -53 -216 7
-96 52 -186 119 -239 78 -61 121 -70 356 -70 l203 0 0 55 0 55 -192 0 c-106 0
-210 5 -231 11 -85 23 -147 110 -147 206 0 72 25 130 74 170 57 46 94 53 305
53 l191 0 0 55 0 55 -207 0 c-173 -1 -217 -4 -260 -19z"/>
    <path d="M1980 2275 l0 -55 110 0 110 0 0 -275 0 -275 55 0 55 0 0 275 0 275
120 0 120 0 0 55 0 55 -285 0 -285 0 0 -55z"/>
    <path d="M2714 2311 c-17 -11 -36 -34 -43 -52 -17 -50 -15 -480 3 -524 26 -61
47 -65 311 -65 l235 0 0 55 0 55 -213 0 c-152 0 -216 3 -225 12 -7 7 -12 42
-12 85 l0 73 215 0 215 0 0 55 0 55 -215 0 -215 0 0 68 c0 40 5 73 12 80 9 9
72 12 220 12 l208 0 0 55 0 55 -232 0 c-211 0 -236 -2 -264 -19z"/>
    <path d="M3340 2000 l0 -330 55 0 55 0 0 146 0 146 154 -146 153 -146 74 0 74
0 -168 163 -169 162 156 162 c86 89 156 164 156 167 0 3 -29 6 -64 6 l-64 0
-151 -152 -151 -153 0 153 0 152 -55 0 -55 0 0 -330z"/>
    <path d="M950 1910 l0 -240 55 0 55 0 0 193 0 193 -48 47 c-26 26 -51 47 -55
47 -4 0 -7 -108 -7 -240z"/>
  </g>
</svg>
